<svg width="315" height="486" viewBox="0 0 315 486" fill="none" xmlns="http://www.w3.org/2000/svg">
<rect y="41.6756" width="240" height="451.041" rx="10" transform="rotate(-10 0 41.6756)" fill="#FAFAFA"/>
<path d="M44.9642 66.2762C44.8171 65.9958 44.6429 65.7522 44.4416 65.5454C44.2429 65.3348 44.0195 65.1655 43.7715 65.0376C43.5229 64.9064 43.2504 64.8215 42.9542 64.7829C42.6612 64.7437 42.3482 64.7534 42.0153 64.8121C41.4506 64.9117 40.967 65.1467 40.5646 65.5172C40.1621 65.8877 39.8781 66.377 39.7128 66.985C39.55 67.5892 39.5401 68.2961 39.6828 69.1056C39.8261 69.9183 40.0794 70.5821 40.4428 71.0969C40.8062 71.6117 41.2436 71.9737 41.7551 72.1831C42.2665 72.3924 42.816 72.4453 43.4035 72.3417C43.9486 72.2456 44.404 72.0509 44.7696 71.7576C45.1385 71.4637 45.3982 71.0948 45.5488 70.6509C45.7021 70.2032 45.7301 69.7035 45.6328 69.1519L46.0374 69.1563L43.1683 69.6622L42.9482 68.4137L46.8895 67.7187L47.0907 68.8595C47.2392 69.7016 47.1886 70.4644 46.9389 71.1479C46.6919 71.8275 46.283 72.391 45.7123 72.8383C45.1449 73.285 44.4565 73.5797 43.647 73.7224C42.7396 73.8824 41.9063 73.8139 41.1472 73.517C40.3914 73.2195 39.7549 72.7209 39.2377 72.0212C38.72 71.3182 38.3679 70.4379 38.1814 69.3804C38.0404 68.5807 38.0248 67.843 38.1345 67.1674C38.2442 66.4918 38.4607 65.8966 38.7839 65.3819C39.1098 64.8634 39.5246 64.4386 40.0282 64.1074C40.5346 63.7725 41.1125 63.5477 41.7621 63.4332C42.3039 63.3376 42.8223 63.3287 43.3172 63.4063C43.8155 63.4834 44.2733 63.6366 44.6906 63.8659C45.1113 64.0946 45.478 64.39 45.7909 64.7522C46.1033 65.1111 46.345 65.5278 46.5162 66.0025L44.9642 66.2762ZM51.7167 72.3298C51.2401 72.4138 50.7937 72.4017 50.3775 72.2933C49.9607 72.1817 49.6097 71.976 49.3246 71.6763C49.0428 71.376 48.8585 70.9794 48.7716 70.4865C48.6968 70.0622 48.7168 69.6985 48.8316 69.3956C48.9465 69.0926 49.1285 68.8367 49.3778 68.6279C49.627 68.419 49.9158 68.2436 50.2441 68.1015C50.5725 67.9595 50.9108 67.8359 51.2591 67.7307C51.7003 67.5991 52.0584 67.4922 52.3334 67.41C52.6077 67.3246 52.8017 67.2316 52.9152 67.1308C53.0286 67.03 53.0698 66.8915 53.0388 66.7152L53.0327 66.6809C52.9573 66.2533 52.7781 65.9433 52.4952 65.7509C52.2154 65.5579 51.8389 65.5032 51.3657 65.5866C50.8728 65.6735 50.5037 65.8513 50.2582 66.1201C50.0155 66.385 49.8636 66.6592 49.8025 66.9426L48.3715 66.8718C48.4541 66.3861 48.6273 65.9752 48.8912 65.6393C49.1577 65.2995 49.4854 65.0296 49.8742 64.8298C50.2625 64.6267 50.6835 64.4852 51.1372 64.4052C51.4374 64.3523 51.762 64.3321 52.1109 64.3446C52.4624 64.3533 52.8015 64.4247 53.1281 64.559C53.4579 64.6927 53.748 64.9158 53.9983 65.2284C54.248 65.5378 54.4213 65.9666 54.5179 66.515L55.3985 71.5089L53.9689 71.761L53.7876 70.7329L53.7288 70.7432C53.6675 70.9492 53.5584 71.1603 53.4013 71.3765C53.2442 71.5926 53.0278 71.7873 52.7521 71.9604C52.4763 72.1336 52.1312 72.2567 51.7167 72.3298ZM51.8277 71.0986C52.2324 71.0273 52.5643 70.8863 52.8234 70.6757C53.0857 70.4645 53.2692 70.2168 53.3738 69.9325C53.4812 69.6443 53.5087 69.3517 53.4563 69.0547L53.2854 68.0852C53.2424 68.1467 53.1498 68.2135 53.0077 68.2856C52.8683 68.354 52.7069 68.4212 52.5233 68.4872C52.3392 68.5499 52.1596 68.6102 51.9847 68.668C51.8092 68.7225 51.6625 68.7685 51.5446 68.8061C51.267 68.8921 51.0182 68.9983 50.7981 69.1246C50.5813 69.2503 50.4169 69.4055 50.3047 69.5902C50.1952 69.771 50.1635 69.992 50.2096 70.2531C50.2735 70.6154 50.4556 70.866 50.7561 71.0049C51.056 71.1405 51.4132 71.1717 51.8277 71.0986ZM61.883 64.5045L60.5976 64.9735C60.5121 64.8135 60.3955 64.6675 60.2477 64.5354C60.1032 64.4027 59.9211 64.3052 59.7014 64.243C59.4818 64.1808 59.2202 64.1764 58.9166 64.2299C58.5021 64.303 58.1725 64.457 57.9279 64.692C57.6827 64.9237 57.5857 65.1848 57.6369 65.4753C57.6812 65.7267 57.8099 65.9126 58.023 66.0332C58.2361 66.1538 58.5586 66.2266 58.9904 66.2514L60.2334 66.3149C60.9535 66.3528 61.5127 66.5083 61.9109 66.7814C62.309 67.0545 62.555 67.457 62.6488 67.9891C62.7283 68.4395 62.6685 68.864 62.4695 69.2626C62.2732 69.6573 61.9609 69.9951 61.5325 70.2759C61.1074 70.5562 60.5913 70.7498 59.9842 70.8569C59.1421 71.0054 58.4233 70.947 57.828 70.6818C57.232 70.4133 56.815 69.9567 56.5768 69.3122L57.9538 68.8472C58.107 69.2005 58.3373 69.4477 58.6449 69.5886C58.9519 69.7263 59.3257 69.7563 59.7663 69.6786C60.2461 69.594 60.6121 69.4269 60.8642 69.1771C61.1158 68.9241 61.216 68.6523 61.1647 68.3618C61.1233 68.1268 61.0003 67.9449 60.7959 67.816C60.5947 67.6866 60.3074 67.6127 59.9339 67.5944L58.6118 67.5398C57.8818 67.5036 57.3179 67.3405 56.9201 67.0506C56.5256 66.76 56.2812 66.3471 56.1868 65.8118C56.1085 65.3679 56.1641 64.9576 56.3534 64.5809C56.5428 64.2042 56.8397 63.8843 57.2443 63.6212C57.6483 63.3547 58.1327 63.1717 58.6973 63.0721C59.5101 62.9288 60.1809 62.9923 60.7098 63.2625C61.2382 63.5295 61.6292 63.9435 61.883 64.5045ZM66.7277 61.7571L66.9349 62.9322L62.8271 63.6565L62.6199 62.4815L66.7277 61.7571ZM63.4038 60.4855L64.8677 60.2273L66.1221 67.3413C66.1722 67.6253 66.2523 67.8316 66.3625 67.9603C66.4721 68.0856 66.5984 68.1627 66.7415 68.1913C66.8872 68.2161 67.04 68.2144 67.2 68.1862C67.3175 68.1654 67.4188 68.1391 67.5041 68.1073C67.5893 68.0754 67.6556 68.0503 67.7028 68.0319L68.1804 69.1946C68.1013 69.2422 67.9863 69.2961 67.8354 69.3564C67.6851 69.4199 67.4927 69.474 67.2582 69.5187C66.8742 69.5932 66.5031 69.5879 66.1448 69.503C65.7866 69.4181 65.4782 69.2436 65.2196 68.9796C64.961 68.7156 64.7917 68.3567 64.7117 67.903L63.4038 60.4855ZM72.6883 68.6168C71.9833 68.7411 71.3395 68.688 70.7571 68.4575C70.1746 68.2271 69.6868 67.8469 69.2939 67.3172C68.901 66.7874 68.636 66.1341 68.499 65.3572C68.3615 64.5771 68.3864 63.8693 68.5739 63.2338C68.7614 62.5984 69.0894 62.0727 69.5579 61.6569C70.0265 61.2411 70.6132 60.9711 71.3183 60.8467C72.0233 60.7224 72.6671 60.7755 73.2496 61.006C73.832 61.2365 74.32 61.6182 74.7136 62.1513C75.1071 62.6843 75.3726 63.3409 75.5102 64.121C75.6472 64.8978 75.6216 65.6023 75.4336 66.2346C75.2455 66.8668 74.9172 67.3908 74.4487 67.8066C73.9802 68.2224 73.3934 68.4925 72.6883 68.6168ZM72.4765 67.387C72.9335 67.3064 73.2908 67.1189 73.5485 66.8244C73.8062 66.5299 73.9715 66.1693 74.0443 65.7425C74.1204 65.3151 74.1159 64.8599 74.0307 64.3768C73.9461 63.897 73.795 63.4693 73.5773 63.0937C73.3623 62.7143 73.0831 62.4287 72.7396 62.2368C72.3962 62.045 71.996 61.9893 71.539 62.0699C71.0788 62.151 70.7185 62.3408 70.4581 62.6391C70.2009 62.9369 70.0346 63.3011 69.9591 63.7317C69.8863 64.1585 69.8922 64.6118 69.9768 65.0916C70.0619 65.5747 70.2117 66.0043 70.4261 66.3805C70.6438 66.756 70.9241 67.0381 71.267 67.2267C71.6131 67.4147 72.0163 67.4682 72.4765 67.387ZM82.3358 60.8981L81.0504 61.3671C80.965 61.2071 80.8484 61.0611 80.7006 60.929C80.556 60.7963 80.3739 60.6988 80.1543 60.6366C79.9346 60.5744 79.673 60.57 79.3695 60.6235C78.9549 60.6966 78.6254 60.8507 78.3807 61.0856C78.1355 61.3173 78.0385 61.5784 78.0897 61.8689C78.134 62.1203 78.2628 62.3062 78.4759 62.4268C78.689 62.5474 79.0114 62.6202 79.4432 62.645L80.6862 62.7085C81.4064 62.7464 81.9655 62.9019 82.3637 63.175C82.7619 63.4481 83.0079 63.8507 83.1017 64.3827C83.1811 64.8331 83.1213 65.2576 82.9224 65.6562C82.7261 66.0509 82.4138 66.3887 81.9854 66.6695C81.5602 66.9498 81.0441 67.1434 80.437 67.2505C79.5949 67.399 78.8762 67.3406 78.2808 67.0754C77.6849 66.8069 77.2678 66.3503 77.0297 65.7058L78.4066 65.2408C78.5598 65.5941 78.7902 65.8413 79.0977 65.9822C79.4047 66.12 79.7785 66.15 80.2192 66.0723C80.699 65.9877 81.065 65.8205 81.3171 65.5707C81.5686 65.3177 81.6688 65.0459 81.6176 64.7554C81.5761 64.5204 81.4532 64.3385 81.2487 64.2096C81.0475 64.0802 80.7602 64.0063 80.3868 63.9881L79.0646 63.9334C78.3346 63.8972 77.7708 63.7342 77.373 63.4442C76.9785 63.1536 76.734 62.7407 76.6396 62.2054C76.5613 61.7615 76.6169 61.3512 76.8063 60.9745C76.9956 60.5979 77.2926 60.2779 77.6972 60.0148C78.1012 59.7483 78.5855 59.5653 79.1502 59.4658C79.9629 59.3224 80.6338 59.3859 81.1627 59.6561C81.691 59.9231 82.0821 60.3371 82.3358 60.8981Z" fill="#858C95"/>
<path d="M45.8856 107.711L42.8546 90.5215L49.3007 89.3849C50.6212 89.152 51.7696 89.1861 52.7457 89.487C53.7275 89.787 54.5208 90.3106 55.1257 91.0579C55.7352 91.7985 56.1366 92.7172 56.33 93.8139C56.5243 94.9162 56.458 95.9145 56.1311 96.8087C55.8087 97.6964 55.2333 98.4411 54.4048 99.043C53.5752 99.6393 52.5002 100.054 51.1797 100.287L46.5886 101.096L46.1327 98.5111L50.3042 97.7756C51.0764 97.6394 51.6899 97.4216 52.1448 97.1222C52.5987 96.8171 52.9067 96.4368 53.0687 95.9813C53.2353 95.5192 53.2649 94.9832 53.1573 94.3733C53.0498 93.7634 52.8377 93.2642 52.5211 92.8758C52.2036 92.4818 51.7788 92.2163 51.247 92.0793C50.7141 91.9367 50.0588 91.934 49.281 92.0711L46.4273 92.5743L48.9995 107.162L45.8856 107.711ZM53.3923 98.3561L59.021 105.395L55.5462 106.007L49.993 98.9555L53.3923 98.3561ZM66.5357 106.285L62.747 84.7984L64.1235 84.5557L67.9122 106.042L66.5357 106.285ZM67.9291 90.9725C67.7215 90.2533 67.2907 89.7408 66.6368 89.4349C65.9884 89.128 65.2026 89.056 64.2793 89.2188C63.6303 89.3333 63.0908 89.5294 62.6609 89.8071C62.231 90.0848 61.9225 90.4133 61.7355 90.7924C61.5485 91.1715 61.4902 91.577 61.5606 92.0089C61.6237 92.367 61.7596 92.6632 61.9683 92.8976C62.1825 93.131 62.4486 93.3149 62.7665 93.4492C63.0835 93.5779 63.4262 93.6733 63.7949 93.7352C64.1635 93.7971 64.5315 93.839 64.8988 93.8607L66.5813 93.9795C67.257 94.0161 67.9169 94.1103 68.5611 94.2621C69.2108 94.413 69.8079 94.6423 70.3526 94.9501C70.9029 95.257 71.3668 95.6627 71.7442 96.1673C72.1217 96.6719 72.376 97.2963 72.5072 98.0405C72.6848 99.0477 72.5838 99.98 72.2042 100.837C71.8236 101.689 71.1845 102.416 70.2868 103.019C69.3938 103.615 68.259 104.034 66.8825 104.277C65.5452 104.513 64.3476 104.51 63.2898 104.27C62.2376 104.028 61.3645 103.559 60.6704 102.862C59.9819 102.165 59.5147 101.249 59.2686 100.115L62.3322 99.5751C62.4825 100.166 62.755 100.631 63.1496 100.971C63.5442 101.311 64.0189 101.534 64.5738 101.638C65.1343 101.741 65.7391 101.735 66.3882 101.621C67.0653 101.501 67.6406 101.296 68.1143 101.005C68.5926 100.707 68.9451 100.35 69.172 99.9354C69.3978 99.5148 69.4701 99.0578 69.3889 98.5644C69.3044 98.1178 69.1078 97.7717 68.7991 97.5261C68.4894 97.2749 68.0851 97.0923 67.5861 96.9784C67.0917 96.8579 66.523 96.7735 65.8799 96.7254L63.8354 96.5666C62.3557 96.4525 61.1394 96.0987 60.1866 95.5051C59.2384 94.905 58.6558 93.9894 58.4388 92.7584C58.2602 91.7456 58.378 90.8104 58.7922 89.9527C59.2119 89.094 59.8604 88.371 60.7377 87.7836C61.6139 87.1906 62.6536 86.7881 63.8566 86.5759C65.0764 86.3608 66.1826 86.385 67.1753 86.6485C68.1725 86.9053 69.0003 87.3623 69.6584 88.0194C70.3156 88.6708 70.738 89.4791 70.9255 90.4441L67.9291 90.9725ZM81.8301 101.615C81.0065 101.755 80.1784 101.754 79.3457 101.612C78.512 101.465 77.7256 101.127 76.9864 100.6C76.2463 100.067 75.5978 99.3014 75.0411 98.3034C74.4833 97.2998 74.0681 96.0085 73.7955 94.4296C73.536 92.958 73.4613 91.6182 73.5714 90.4103C73.6815 89.2024 73.9603 88.1493 74.4077 87.2512C74.8541 86.3474 75.4544 85.6127 76.2085 85.047C76.9683 84.4803 77.8629 84.1062 78.8925 83.9247C79.9724 83.7343 80.9668 83.7782 81.8755 84.0564C82.7898 84.3337 83.5694 84.7962 84.2145 85.4441C84.8585 86.0863 85.3235 86.8582 85.6094 87.7598L82.5458 88.3C82.2727 87.6673 81.8582 87.1981 81.3024 86.8922C80.7511 86.5798 80.1062 86.4887 79.3676 86.6189C78.1757 86.8291 77.3493 87.5085 76.8884 88.6571C76.433 89.8047 76.3619 91.2827 76.675 93.0911L76.7925 93.0703C76.9798 92.5296 77.2607 92.0445 77.6349 91.615C78.0092 91.1855 78.4538 90.8273 78.9686 90.5404C79.488 90.2469 80.0555 90.0459 80.671 89.9373C81.6782 89.7597 82.6243 89.841 83.5093 90.1811C84.3999 90.5203 85.1547 91.0708 85.7737 91.8329C86.3917 92.5893 86.7936 93.5108 86.9794 94.5973C87.1843 95.7266 87.106 96.7876 86.7445 97.7802C86.382 98.7673 85.7817 99.6001 84.9436 100.279C84.1055 100.957 83.0677 101.403 81.8301 101.615ZM81.3693 99.1002C81.9792 98.9926 82.4986 98.7481 82.9275 98.3667C83.3565 97.9853 83.6664 97.5181 83.8574 96.9652C84.0484 96.4123 84.0858 95.823 83.9697 95.1973C83.8668 94.5808 83.6343 94.0477 83.2723 93.598C82.9159 93.1474 82.4743 92.8185 81.9473 92.6114C81.4204 92.4043 80.852 92.3545 80.2421 92.4621C79.7889 92.542 79.3817 92.7032 79.0206 92.9457C78.6595 93.1883 78.3606 93.4891 78.1239 93.8481C77.8862 94.2016 77.719 94.5946 77.6221 95.027C77.5299 95.4529 77.521 95.893 77.5953 96.3472C77.7064 96.9449 77.9435 97.4714 78.3065 97.9267C78.6695 98.3819 79.1182 98.7182 79.6527 98.9355C80.1872 99.1528 80.7594 99.2077 81.3693 99.1002ZM94.3077 81.4489L97.3386 98.6383L94.2247 99.1873L91.7281 85.0279L91.6273 85.0457L88.0598 88.3229L87.5567 85.4692L91.3449 81.9713L94.3077 81.4489ZM101.23 97.952L100.834 95.7027L105.77 88.8003C106.239 88.1233 106.624 87.5275 106.926 87.0128C107.227 86.498 107.436 86.0141 107.553 85.5608C107.669 85.1076 107.685 84.6432 107.601 84.1676C107.505 83.6248 107.3 83.1821 106.986 82.8394C106.671 82.4912 106.279 82.2487 105.811 82.112C105.342 81.9754 104.834 81.9554 104.286 82.0521C103.721 82.1517 103.246 82.3566 102.862 82.6666C102.477 82.971 102.205 83.3565 102.045 83.8232C101.891 84.2889 101.865 84.8155 101.969 85.4031L99.006 85.9255C98.8136 84.8344 98.8953 83.842 99.2513 82.9485C99.6072 82.0549 100.183 81.3101 100.978 80.7142C101.778 80.1172 102.746 79.7186 103.882 79.5183C105.035 79.3151 106.086 79.3519 107.035 79.6289C107.983 79.9058 108.765 80.3767 109.378 81.0417C109.997 81.7057 110.391 82.5188 110.561 83.4813C110.675 84.1248 110.663 84.7787 110.526 85.4433C110.39 86.1078 110.077 86.8725 109.589 87.7374C109.107 88.6013 108.404 89.6686 107.48 90.9393L105.048 94.4749L105.069 94.5924L112.556 93.2723L113.015 95.8742L101.23 97.952ZM116.067 95.336L120.826 79.577L120.805 79.4594L112.32 80.9557L111.861 78.3538L123.57 76.2892L124.039 78.9499L119.298 94.7662L116.067 95.336ZM129.069 90.6202L129.122 91.5627C129.168 92.2816 129.155 93.0225 129.082 93.7854C129.015 94.5529 128.927 95.2637 128.817 95.9177C128.707 96.5717 128.616 97.0868 128.544 97.463L126.496 97.8241C126.515 97.4689 126.539 96.9858 126.57 96.3746C126.606 95.7624 126.624 95.0784 126.623 94.3227C126.623 93.567 126.578 92.8075 126.49 92.0442L126.383 91.0938L129.069 90.6202ZM138.122 91.7845C136.74 92.0282 135.492 91.8877 134.379 91.3629C133.269 90.8315 132.332 89.9496 131.567 88.7172C130.806 87.4782 130.26 85.9215 129.93 84.047C129.605 82.1715 129.589 80.5299 129.884 79.1222C130.182 77.708 130.763 76.5671 131.625 75.6996C132.493 74.8311 133.616 74.2755 134.992 74.0328C136.369 73.7901 137.613 73.9283 138.726 74.4476C139.839 74.9668 140.775 75.8403 141.533 77.0681C142.298 78.2949 142.845 79.8427 143.174 81.7116C143.506 83.5917 143.523 85.2445 143.226 86.6699C142.934 88.0888 142.355 89.2353 141.488 90.1094C140.626 90.9824 139.504 91.5408 138.122 91.7845ZM137.659 89.1574C138.733 88.968 139.488 88.2898 139.922 87.1227C140.362 85.949 140.399 84.3299 140.035 82.2651C139.794 80.8998 139.45 79.7779 139 78.8994C138.551 78.0208 138.025 77.3924 137.422 77.0142C136.818 76.6303 136.16 76.501 135.449 76.6263C134.381 76.8148 133.63 77.4953 133.196 78.668C132.761 79.8351 132.722 81.4431 133.077 83.492C133.313 84.8639 133.654 85.9924 134.098 86.8775C134.548 87.7616 135.076 88.3956 135.68 88.7795C136.283 89.1577 136.943 89.2837 137.659 89.1574ZM153.414 89.0882C152.032 89.3319 150.784 89.1913 149.67 88.6665C148.561 88.1351 147.624 87.2532 146.859 86.0208C146.098 84.7818 145.552 83.2251 145.222 81.3506C144.897 79.4751 144.881 77.8335 145.175 76.4259C145.474 75.0116 146.055 73.8707 146.917 73.0032C147.785 72.1347 148.908 71.5792 150.284 71.3364C151.661 71.0937 152.905 71.232 154.018 71.7512C155.131 72.2704 156.066 73.1439 156.825 74.3717C157.59 75.5985 158.137 77.1463 158.466 79.0152C158.798 80.8953 158.815 82.5481 158.518 83.9736C158.226 85.3924 157.647 86.5389 156.78 87.413C155.918 88.2861 154.796 88.8445 153.414 89.0882ZM152.951 86.4611C154.025 86.2716 154.78 85.5934 155.214 84.4263C155.654 83.2527 155.691 81.6335 155.327 79.5687C155.086 78.2034 154.741 77.0815 154.292 76.203C153.843 75.3245 153.317 74.6961 152.714 74.3178C152.109 73.9339 151.452 73.8046 150.741 73.93C149.673 74.1184 148.921 74.799 148.488 75.9716C148.053 77.1387 148.014 78.7467 148.369 80.7956C148.605 82.1675 148.946 83.296 149.39 84.1811C149.84 85.0653 150.367 85.6992 150.972 86.0831C151.575 86.4614 152.235 86.5874 152.951 86.4611Z" fill="black"/>
<path d="M139.65 142.274C138.559 136.083 142.699 130.104 148.978 129.793C164.056 129.045 179.148 132.057 192.868 138.638C210.023 146.866 224.169 160.261 233.321 176.942C242.472 193.623 246.169 212.752 243.891 231.641C241.614 250.531 233.477 268.233 220.623 282.26C207.769 296.288 190.843 305.937 172.224 309.852C153.605 313.768 134.227 311.752 116.812 304.09C99.3971 296.427 84.8197 283.501 75.1273 267.129C67.3761 254.035 63.0605 239.263 62.491 224.177C62.2538 217.895 67.8495 213.249 74.1119 213.797C80.3744 214.345 84.9077 219.892 85.4064 226.159C86.2278 236.482 89.3911 246.535 94.717 255.532C101.986 267.811 112.919 277.505 125.981 283.252C139.042 289 153.575 290.511 167.54 287.575C181.504 284.638 194.198 277.401 203.839 266.881C213.479 256.36 219.582 243.084 221.29 228.916C222.998 214.749 220.226 200.403 213.362 187.892C206.499 175.381 195.889 165.335 183.022 159.164C173.596 154.642 163.305 152.367 152.949 152.448C146.663 152.498 140.742 148.465 139.65 142.274Z" fill="#6325C7"/>
<path d="M126.554 223.995L131.313 208.236L131.292 208.119L122.806 209.615L122.348 207.013L134.056 204.949L134.525 207.609L129.785 223.426L126.554 223.995ZM140.414 221.551L145.174 205.792L145.153 205.675L136.667 207.171L136.208 204.569L147.917 202.505L148.386 205.165L143.646 220.982L140.414 221.551ZM152.168 219.669C151.658 219.759 151.19 219.657 150.764 219.363C150.337 219.069 150.081 218.664 149.995 218.148C149.901 217.646 150.004 217.183 150.305 216.761C150.605 216.339 151.01 216.083 151.519 215.993C152.012 215.906 152.471 216.01 152.898 216.304C153.331 216.597 153.594 216.995 153.689 217.497C153.743 217.84 153.708 218.166 153.584 218.476C153.466 218.786 153.281 219.049 153.031 219.266C152.786 219.477 152.498 219.611 152.168 219.669ZM162.422 217.913C161.303 218.11 160.264 218.077 159.306 217.813C158.347 217.544 157.542 217.086 156.892 216.439C156.247 215.791 155.823 214.995 155.622 214.049L158.644 213.517C158.824 214.212 159.231 214.734 159.863 215.084C160.495 215.429 161.2 215.532 161.978 215.395C162.588 215.288 163.106 215.052 163.532 214.688C163.959 214.325 164.265 213.87 164.451 213.323C164.638 212.777 164.672 212.185 164.554 211.549C164.445 210.899 164.206 210.346 163.838 209.892C163.469 209.438 163.016 209.111 162.479 208.911C161.941 208.706 161.356 208.659 160.723 208.771C160.208 208.856 159.718 209.041 159.255 209.324C158.791 209.608 158.442 209.935 158.207 210.305L155.314 210.339L154.649 201.318L164.62 199.559L165.079 202.161L157.685 203.465L157.993 208.11L158.094 208.092C158.347 207.661 158.742 207.271 159.281 206.922C159.819 206.568 160.434 206.33 161.128 206.207C162.169 206.024 163.141 206.106 164.045 206.454C164.948 206.797 165.71 207.355 166.33 208.128C166.951 208.902 167.359 209.839 167.554 210.942C167.754 212.078 167.669 213.137 167.3 214.119C166.936 215.095 166.334 215.919 165.495 216.592C164.66 217.259 163.636 217.699 162.422 217.913ZM179.511 211.334L179.351 210.428C179.234 209.762 179.265 209.125 179.447 208.516C179.633 207.906 179.968 207.382 180.451 206.945C180.933 206.508 181.56 206.222 182.333 206.086C183.127 205.946 183.823 205.999 184.421 206.245C185.017 206.486 185.501 206.863 185.874 207.374C186.253 207.884 186.501 208.475 186.62 209.146L186.779 210.053C186.897 210.719 186.865 211.356 186.684 211.965C186.503 212.574 186.171 213.097 185.688 213.534C185.211 213.97 184.581 214.257 183.798 214.395C183.014 214.533 182.321 214.479 181.718 214.234C181.115 213.988 180.625 213.61 180.246 213.1C179.873 212.589 179.628 212 179.511 211.334ZM181.542 210.042L181.701 210.948C181.779 211.39 181.957 211.777 182.235 212.109C182.513 212.441 182.92 212.559 183.457 212.465C184 212.369 184.34 212.121 184.478 211.722C184.619 211.316 184.651 210.89 184.572 210.442L184.412 209.536C184.333 209.088 184.163 208.697 183.902 208.362C183.64 208.022 183.23 207.901 182.67 207.999C182.144 208.092 181.805 208.345 181.653 208.759C181.5 209.166 181.463 209.594 181.542 210.042ZM169.039 203.038L168.879 202.132C168.761 201.46 168.795 200.82 168.982 200.21C169.168 199.6 169.503 199.079 169.987 198.648C170.47 198.211 171.097 197.924 171.869 197.788C172.658 197.649 173.351 197.703 173.949 197.949C174.551 198.189 175.038 198.565 175.411 199.076C175.784 199.587 176.029 200.179 176.148 200.85L176.308 201.757C176.426 202.428 176.395 203.068 176.213 203.677C176.037 204.279 175.707 204.796 175.223 205.228C174.74 205.659 174.109 205.943 173.331 206.08C172.542 206.22 171.847 206.169 171.245 205.929C170.649 205.688 170.161 205.312 169.783 204.802C169.404 204.292 169.156 203.704 169.039 203.038ZM171.087 201.742L171.246 202.649C171.325 203.097 171.501 203.487 171.773 203.82C172.05 204.146 172.457 204.262 172.994 204.167C173.531 204.072 173.868 203.825 174.006 203.426C174.148 203.02 174.179 202.593 174.1 202.146L173.94 201.239C173.861 200.792 173.691 200.4 173.43 200.066C173.168 199.725 172.761 199.604 172.207 199.702C171.675 199.795 171.336 200.048 171.189 200.461C171.043 200.873 171.009 201.3 171.087 201.742ZM172.299 215.929L181.085 196.656L183.184 196.286L174.397 215.559L172.299 215.929Z" fill="black"/>
<path d="M130.563 246.206C129.835 246.335 129.18 246.28 128.596 246.043C128.015 245.802 127.533 245.415 127.149 244.88C126.765 244.345 126.507 243.701 126.374 242.947C126.239 242.183 126.264 241.484 126.448 240.849C126.632 240.21 126.956 239.68 127.42 239.259C127.884 238.837 128.47 238.564 129.178 238.439C129.75 238.338 130.278 238.354 130.762 238.488C131.246 238.618 131.659 238.848 132 239.178C132.344 239.508 132.587 239.921 132.728 240.418L131.303 240.669C131.163 240.33 130.93 240.058 130.604 239.853C130.282 239.648 129.887 239.586 129.42 239.668C129.012 239.74 128.674 239.911 128.405 240.18C128.139 240.446 127.956 240.791 127.856 241.216C127.755 241.638 127.752 242.116 127.846 242.652C127.943 243.2 128.11 243.659 128.347 244.028C128.583 244.396 128.873 244.663 129.215 244.829C129.56 244.993 129.94 245.039 130.355 244.966C130.632 244.917 130.874 244.822 131.082 244.681C131.292 244.536 131.457 244.354 131.576 244.135C131.699 243.914 131.767 243.663 131.782 243.381L133.206 243.13C133.24 243.626 133.158 244.088 132.961 244.516C132.764 244.945 132.463 245.308 132.057 245.605C131.655 245.901 131.157 246.101 130.563 246.206ZM138.287 244.844C137.582 244.969 136.939 244.915 136.356 244.685C135.774 244.455 135.286 244.074 134.893 243.545C134.5 243.015 134.235 242.362 134.098 241.585C133.961 240.805 133.986 240.097 134.173 239.461C134.36 238.826 134.688 238.3 135.157 237.884C135.626 237.469 136.212 237.199 136.917 237.074C137.622 236.95 138.266 237.003 138.849 237.233C139.431 237.464 139.919 237.846 140.313 238.379C140.706 238.912 140.972 239.568 141.109 240.348C141.246 241.125 141.221 241.83 141.033 242.462C140.845 243.094 140.516 243.618 140.048 244.034C139.579 244.45 138.992 244.72 138.287 244.844ZM138.076 243.614C138.533 243.534 138.89 243.346 139.148 243.052C139.405 242.757 139.571 242.397 139.643 241.97C139.72 241.543 139.715 241.087 139.63 240.604C139.545 240.124 139.394 239.697 139.176 239.321C138.961 238.942 138.682 238.656 138.339 238.464C137.995 238.272 137.595 238.217 137.138 238.297C136.678 238.378 136.318 238.568 136.057 238.867C135.8 239.164 135.634 239.529 135.558 239.959C135.485 240.386 135.491 240.839 135.576 241.319C135.661 241.802 135.811 242.232 136.025 242.608C136.243 242.983 136.523 243.266 136.866 243.454C137.212 243.642 137.615 243.696 138.076 243.614ZM143.302 243.804L141.976 236.283L143.381 236.035L143.597 237.259L143.69 237.243C143.773 236.801 143.973 236.433 144.288 236.138C144.602 235.84 145.007 235.648 145.503 235.56C146.006 235.472 146.448 235.515 146.829 235.69C147.213 235.865 147.523 236.143 147.758 236.526L147.837 236.512C147.945 236.079 148.175 235.708 148.524 235.401C148.873 235.091 149.319 234.887 149.861 234.792C150.543 234.672 151.137 234.787 151.643 235.139C152.153 235.49 152.484 236.096 152.636 236.958L153.525 242.001L152.061 242.259L151.196 237.353C151.106 236.844 150.902 236.5 150.585 236.32C150.267 236.141 149.915 236.085 149.53 236.153C149.054 236.237 148.709 236.449 148.497 236.789C148.283 237.126 148.217 237.523 148.298 237.98L149.143 242.774L147.684 243.031L146.802 238.032C146.73 237.624 146.545 237.318 146.247 237.115C145.949 236.912 145.595 236.846 145.187 236.918C144.91 236.967 144.667 237.086 144.458 237.274C144.251 237.459 144.099 237.693 144.001 237.976C143.906 238.258 143.888 238.569 143.948 238.909L144.766 243.545L143.302 243.804ZM155.886 244.493L154.062 234.152L155.492 233.9L155.707 235.119L155.829 235.097C155.887 234.926 155.977 234.723 156.101 234.489C156.224 234.255 156.415 234.037 156.672 233.833C156.928 233.627 157.29 233.482 157.756 233.4C158.363 233.293 158.932 233.351 159.463 233.573C159.994 233.796 160.445 234.172 160.818 234.702C161.194 235.232 161.454 235.903 161.597 236.716C161.74 237.528 161.728 238.249 161.559 238.878C161.39 239.503 161.097 240.015 160.679 240.411C160.26 240.805 159.747 241.055 159.14 241.162C158.683 241.243 158.296 241.232 157.978 241.13C157.664 241.027 157.407 240.887 157.208 240.71C157.008 240.534 156.85 240.373 156.734 240.229L156.646 240.244L157.35 244.234L155.886 244.493ZM156.16 237.659C156.253 238.188 156.412 238.638 156.635 239.009C156.859 239.38 157.136 239.653 157.466 239.827C157.796 239.998 158.171 240.046 158.592 239.972C159.029 239.895 159.375 239.714 159.627 239.431C159.88 239.144 160.046 238.786 160.125 238.358C160.208 237.93 160.205 237.464 160.116 236.962C160.028 236.466 159.875 236.033 159.655 235.665C159.439 235.296 159.162 235.023 158.824 234.847C158.49 234.67 158.103 234.621 157.662 234.699C157.238 234.773 156.898 234.946 156.643 235.217C156.391 235.486 156.225 235.83 156.143 236.249C156.062 236.667 156.068 237.137 156.16 237.659ZM163.495 229.904L165.263 239.931L163.799 240.189L162.031 230.162L163.495 229.904ZM170.402 239.182C169.661 239.312 168.995 239.266 168.404 239.044C167.816 238.818 167.325 238.442 166.933 237.915C166.543 237.385 166.28 236.73 166.142 235.95C166.006 235.179 166.03 234.475 166.214 233.837C166.401 233.198 166.724 232.668 167.185 232.247C167.649 231.825 168.231 231.553 168.929 231.43C169.354 231.355 169.777 231.352 170.2 231.423C170.623 231.493 171.019 231.65 171.389 231.895C171.759 232.139 172.077 232.485 172.344 232.933C172.611 233.377 172.805 233.94 172.925 234.622L173.017 235.141L167.038 236.195L166.845 235.099L171.389 234.298C171.321 233.912 171.182 233.585 170.973 233.316C170.764 233.043 170.501 232.845 170.187 232.722C169.876 232.599 169.531 232.57 169.152 232.637C168.741 232.71 168.4 232.874 168.129 233.131C167.86 233.383 167.671 233.686 167.562 234.038C167.455 234.387 167.435 234.749 167.501 235.124L167.652 235.981C167.741 236.484 167.904 236.896 168.142 237.217C168.384 237.538 168.681 237.764 169.034 237.893C169.386 238.02 169.776 238.045 170.204 237.97C170.481 237.921 170.727 237.837 170.942 237.718C171.156 237.596 171.332 237.441 171.47 237.252C171.609 237.062 171.701 236.842 171.748 236.592L173.177 236.597C173.138 237.025 173.002 237.417 172.769 237.775C172.539 238.128 172.223 238.428 171.822 238.674C171.424 238.916 170.95 239.085 170.402 239.182ZM177.312 230.052L177.519 231.228L173.411 231.952L173.204 230.777L177.312 230.052ZM173.988 228.781L175.452 228.523L176.707 235.637C176.757 235.921 176.837 236.127 176.947 236.256C177.057 236.381 177.183 236.458 177.326 236.487C177.472 236.511 177.624 236.51 177.784 236.481C177.902 236.461 178.003 236.434 178.089 236.403C178.174 236.371 178.24 236.346 178.287 236.327L178.765 237.49C178.686 237.538 178.571 237.591 178.42 237.652C178.269 237.715 178.077 237.769 177.843 237.814C177.459 237.888 177.088 237.883 176.729 237.798C176.371 237.713 176.063 237.539 175.804 237.275C175.545 237.011 175.376 236.652 175.296 236.198L173.988 228.781ZM183.273 236.912C182.568 237.036 181.924 236.983 181.341 236.753C180.759 236.522 180.271 236.142 179.878 235.612C179.485 235.083 179.22 234.429 179.083 233.653C178.946 232.872 178.971 232.165 179.158 231.529C179.346 230.894 179.674 230.368 180.142 229.952C180.611 229.536 181.198 229.266 181.903 229.142C182.608 229.018 183.251 229.071 183.834 229.301C184.416 229.532 184.904 229.914 185.298 230.447C185.691 230.98 185.957 231.636 186.095 232.416C186.232 233.193 186.206 233.898 186.018 234.53C185.83 235.162 185.502 235.686 185.033 236.102C184.565 236.518 183.978 236.788 183.273 236.912ZM183.061 235.682C183.518 235.602 183.875 235.414 184.133 235.12C184.391 234.825 184.556 234.465 184.629 234.038C184.705 233.61 184.7 233.155 184.615 232.672C184.531 232.192 184.379 231.765 184.162 231.389C183.947 231.01 183.667 230.724 183.324 230.532C182.981 230.34 182.58 230.285 182.123 230.365C181.663 230.446 181.303 230.636 181.042 230.934C180.785 231.232 180.619 231.596 180.544 232.027C180.471 232.454 180.477 232.907 180.561 233.387C180.646 233.87 180.796 234.3 181.011 234.676C181.228 235.051 181.509 235.333 181.851 235.522C182.198 235.71 182.601 235.763 183.061 235.682Z" fill="#858C95"/>
<rect x="137.404" y="337.841" width="69" height="13" rx="6.5" transform="rotate(-10 137.404 337.841)" fill="#FAFAFA"/>
<rect x="122.893" y="361.434" width="109" height="13" rx="6.5" transform="rotate(-10 122.893 361.434)" fill="#FAFAFA"/>
<path d="M127.798 409.608C126.376 409.858 125.427 411.214 125.678 412.636C125.928 414.058 127.284 415.007 128.706 414.756L268.755 390.062C270.177 389.811 271.127 388.455 270.876 387.034C270.625 385.612 269.269 384.662 267.848 384.913L127.798 409.608Z" fill="#6325C7"/>
<path d="M132.337 435.352C130.916 435.603 129.966 436.959 130.217 438.38C130.468 439.802 131.824 440.752 133.245 440.501L273.295 415.806C274.717 415.556 275.666 414.2 275.415 412.778C275.165 411.356 273.809 410.407 272.387 410.658L132.337 435.352Z" fill="#E33B32"/>
<circle cx="106.263" cy="413.935" r="6.7968" transform="rotate(-10 106.263 413.935)" fill="#6325C7"/>
<circle cx="110.984" cy="440.71" r="6.7968" transform="rotate(-10 110.984 440.71)" fill="#E33B32"/>
<rect y="41.6756" width="240" height="451.041" rx="10" transform="rotate(-10 0 41.6756)" stroke="#E5E5E7"/>
</svg>
