<svg width="56" height="15" viewBox="0 0 56 15" fill="none" xmlns="http://www.w3.org/2000/svg">
<path d="M5.58469 14.1982C4.61737 14.1982 3.78427 13.9915 3.0854 13.5781C2.3908 13.1605 1.85387 12.5746 1.47461 11.8203C1.09961 11.0618 0.912109 10.1733 0.912109 9.15483C0.912109 8.14915 1.09961 7.26278 1.47461 6.49574C1.85387 5.72869 2.38228 5.12997 3.05984 4.69957C3.74165 4.26918 4.53853 4.05398 5.45046 4.05398C6.00444 4.05398 6.54137 4.1456 7.06126 4.32884C7.58114 4.51207 8.04776 4.79972 8.46112 5.19176C8.87447 5.58381 9.20046 6.09304 9.4391 6.71946C9.67774 7.34162 9.79705 8.09801 9.79705 8.98864V9.66619H1.99237V8.23438H7.92418C7.92418 7.73153 7.82191 7.28622 7.61737 6.89844C7.41282 6.50639 7.12518 6.19744 6.75444 5.97159C6.38796 5.74574 5.95756 5.63281 5.46325 5.63281C4.92631 5.63281 4.45756 5.76491 4.057 6.02912C3.66069 6.28906 3.35387 6.62997 3.13654 7.05185C2.92347 7.46946 2.81694 7.9233 2.81694 8.41335V9.53196C2.81694 10.1882 2.932 10.7464 3.16211 11.2067C3.39648 11.6669 3.72248 12.0185 4.14009 12.2614C4.55771 12.5 5.04563 12.6193 5.60387 12.6193C5.96609 12.6193 6.29634 12.5682 6.59464 12.4659C6.89293 12.3594 7.15075 12.2017 7.36808 11.9929C7.58541 11.7841 7.7516 11.5263 7.86666 11.2195L9.6756 11.5455C9.53072 12.0781 9.27077 12.5447 8.89577 12.9453C8.52504 13.3416 8.05842 13.6506 7.49592 13.8722C6.93768 14.0895 6.3006 14.1982 5.58469 14.1982ZM20.0355 4.18182L16.4751 14H14.4297L10.8629 4.18182H12.9148L15.4013 11.7372H15.5036L17.9837 4.18182H20.0355ZM25.7292 14.1982C24.7619 14.1982 23.9288 13.9915 23.2299 13.5781C22.5353 13.1605 21.9984 12.5746 21.6191 11.8203C21.2441 11.0618 21.0566 10.1733 21.0566 9.15483C21.0566 8.14915 21.2441 7.26278 21.6191 6.49574C21.9984 5.72869 22.5268 5.12997 23.2044 4.69957C23.8862 4.26918 24.6831 4.05398 25.595 4.05398C26.149 4.05398 26.6859 4.1456 27.2058 4.32884C27.7257 4.51207 28.1923 4.79972 28.6056 5.19176C29.019 5.58381 29.345 6.09304 29.5836 6.71946C29.8223 7.34162 29.9416 8.09801 29.9416 8.98864V9.66619H22.1369V8.23438H28.0687C28.0687 7.73153 27.9664 7.28622 27.7619 6.89844C27.5574 6.50639 27.2697 6.19744 26.899 5.97159C26.5325 5.74574 26.1021 5.63281 25.6078 5.63281C25.0708 5.63281 24.6021 5.76491 24.2015 6.02912C23.8052 6.28906 23.4984 6.62997 23.2811 7.05185C23.068 7.46946 22.9615 7.9233 22.9615 8.41335V9.53196C22.9615 10.1882 23.0765 10.7464 23.3066 11.2067C23.541 11.6669 23.867 12.0185 24.2846 12.2614C24.7022 12.5 25.1902 12.6193 25.7484 12.6193C26.1106 12.6193 26.4409 12.5682 26.7392 12.4659C27.0375 12.3594 27.2953 12.2017 27.5126 11.9929C27.7299 11.7841 27.8961 11.5263 28.0112 11.2195L29.8201 11.5455C29.6752 12.0781 29.4153 12.5447 29.0403 12.9453C28.6696 13.3416 28.2029 13.6506 27.6404 13.8722C27.0822 14.0895 26.4451 14.1982 25.7292 14.1982Z" fill="#FAFAFA"/>
<path d="M33.9734 8.17045V14H32.0621V4.18182H33.8967V5.77983H34.0181C34.244 5.25994 34.5977 4.84233 35.0792 4.52699C35.565 4.21165 36.1765 4.05398 36.9137 4.05398C37.5827 4.05398 38.1687 4.1946 38.6715 4.47585C39.1744 4.75284 39.5643 5.16619 39.8413 5.71591C40.1183 6.26562 40.2567 6.94531 40.2567 7.75497V14H38.3455V7.98509C38.3455 7.27344 38.1602 6.71733 37.7894 6.31676C37.4187 5.91193 36.9094 5.70952 36.2617 5.70952C35.8185 5.70952 35.4244 5.8054 35.0792 5.99716C34.7383 6.18892 34.4677 6.47017 34.2674 6.84091C34.0714 7.20739 33.9734 7.65057 33.9734 8.17045ZM42.82 14V4.18182H44.7312V14H42.82ZM43.7852 2.6669C43.4528 2.6669 43.1673 2.55611 42.9286 2.33452C42.6942 2.10866 42.5771 1.8402 42.5771 1.52912C42.5771 1.21378 42.6942 0.945312 42.9286 0.723721C43.1673 0.497869 43.4528 0.384943 43.7852 0.384943C44.1175 0.384943 44.4009 0.497869 44.6353 0.723721C44.8739 0.945312 44.9933 1.21378 44.9933 1.52912C44.9933 1.8402 44.8739 2.10866 44.6353 2.33452C44.4009 2.55611 44.1175 2.6669 43.7852 2.6669ZM48.8109 4.18182L50.9778 8.00426L53.1639 4.18182H55.2541L52.1923 9.09091L55.2797 14H53.1895L50.9778 10.331L48.7725 14H46.676L49.7314 9.09091L46.7143 4.18182H48.8109Z" fill="#6325C7"/>
</svg>
